<svg width="12" height="14" viewBox="0 0 12 14" fill="none" xmlns="http://www.w3.org/2000/svg">
<path d="M5.661 13.8302C5.51487 13.8302 5.36875 13.805 5.22262 13.7546C5.07638 13.7041 4.94413 13.626 4.82588 13.5203C4.15288 12.9 3.52306 12.2613 2.93644 11.604C2.34994 10.9469 1.84012 10.2899 1.407 9.63319C0.97375 8.97644 0.630938 8.3255 0.378563 7.68038C0.126188 7.03513 0 6.412 0 5.811C0 4.08025 0.559812 2.67906 1.67944 1.60744C2.79919 0.535812 4.12637 0 5.661 0C7.19562 0 8.52281 0.535812 9.64256 1.60744C10.7622 2.67906 11.322 4.08025 11.322 5.811C11.322 6.412 11.1958 7.03388 10.9434 7.67663C10.6911 8.3195 10.3495 8.9705 9.91875 9.62962C9.48787 10.2887 8.97919 10.9457 8.39269 11.6004C7.80619 12.2553 7.17637 12.8928 6.50325 13.5129C6.38675 13.6187 6.25431 13.698 6.10594 13.7509C5.95769 13.8038 5.80937 13.8302 5.661 13.8302ZM5.66231 7.02394C6.03544 7.02394 6.35444 6.89106 6.61931 6.62531C6.88431 6.35956 7.01681 6.04012 7.01681 5.667C7.01681 5.29388 6.88394 4.97481 6.61819 4.70981C6.35244 4.44494 6.03294 4.3125 5.65969 4.3125C5.28656 4.3125 4.96756 4.44538 4.70269 4.71113C4.43769 4.97688 4.30519 5.29638 4.30519 5.66963C4.30519 6.04275 4.43806 6.36175 4.70381 6.62663C4.96956 6.8915 5.28906 7.02394 5.66231 7.02394Z" fill="white"/>
</svg>
