<svg width="13" height="13" viewBox="0 0 13 13" fill="none" xmlns="http://www.w3.org/2000/svg">
<path d="M11.9552 12.75C10.5418 12.75 9.12187 12.4214 7.69537 11.7641C6.269 11.1069 4.95725 10.1798 3.76013 8.98275C2.56788 7.78562 1.64313 6.475 0.985875 5.05088C0.328625 3.62688 0 2.20819 0 0.794813C0 0.569813 0.075 0.381063 0.225 0.228563C0.375 0.0761875 0.5625 0 0.7875 0H3.23362C3.423 0 3.59006 0.0618128 3.73481 0.185438C3.87956 0.308938 3.97163 0.461562 4.011 0.643312L4.44094 2.85C4.47069 3.05475 4.46444 3.23069 4.42219 3.37781C4.37981 3.52494 4.30381 3.6485 4.19419 3.7485L2.46206 5.43469C2.74081 5.94519 3.05931 6.42813 3.41756 6.8835C3.77569 7.33875 4.16344 7.77356 4.58081 8.18794C4.99231 8.59956 5.42981 8.98181 5.89331 9.33469C6.35681 9.68756 6.85731 10.0159 7.39481 10.3198L9.07781 8.62219C9.19519 8.50006 9.33731 8.41444 9.50419 8.36531C9.67094 8.31631 9.84425 8.30431 10.0241 8.32931L12.1067 8.75344C12.2961 8.80344 12.4506 8.90006 12.5704 9.04331C12.6901 9.18656 12.75 9.34906 12.75 9.53081V11.9625C12.75 12.1875 12.6738 12.375 12.5214 12.525C12.3689 12.675 12.1802 12.75 11.9552 12.75Z" fill="white"/>
</svg>
